<svg width="17" height="16" viewBox="0 0 17 16" fill="none" xmlns="http://www.w3.org/2000/svg">
<path d="M7.34534 14C7.46237 14.2027 7.63068 14.371 7.83337 14.488C8.03605 14.605 8.26597 14.6666 8.5 14.6666C8.73404 14.6666 8.96396 14.605 9.16664 14.488C9.36933 14.371 9.53764 14.2027 9.65467 14" stroke="#0A0A0A" stroke-width="1.33333" stroke-linecap="round" stroke-linejoin="round"/>
<path d="M2.67467 10.2173C2.58758 10.3127 2.5301 10.4314 2.50924 10.5589C2.48837 10.6864 2.50501 10.8173 2.55714 10.9355C2.60926 11.0538 2.69462 11.1543 2.80284 11.2249C2.91105 11.2955 3.03745 11.3332 3.16667 11.3333H13.8333C13.9625 11.3333 14.089 11.2958 14.1972 11.2253C14.3055 11.1548 14.391 11.0544 14.4433 10.9363C14.4955 10.8181 14.5123 10.6873 14.4916 10.5598C14.4709 10.4322 14.4136 10.3135 14.3267 10.2179C13.44 9.30392 12.5 8.33259 12.5 5.33325C12.5 4.27239 12.0786 3.25497 11.3284 2.50482C10.5783 1.75468 9.56087 1.33325 8.5 1.33325C7.43914 1.33325 6.42172 1.75468 5.67157 2.50482C4.92143 3.25497 4.5 4.27239 4.5 5.33325C4.5 8.33259 3.55933 9.30392 2.67467 10.2173Z" stroke="#0A0A0A" stroke-width="1.33333" stroke-linecap="round" stroke-linejoin="round"/>
</svg>
