<svg width="273" height="273" viewBox="0 0 273 273" fill="none" xmlns="http://www.w3.org/2000/svg">
<path d="M0 10C0 4.47715 4.47715 0 10 0H263C268.523 0 273 4.47715 273 10V263C273 268.523 268.523 273 263 273H10C4.47715 273 0 268.523 0 263V10Z" fill="#ECECF0"/>
<path d="M128.5 135.167H133.833" stroke="#717182" stroke-width="2.66667" stroke-linecap="round" stroke-linejoin="round"/>
<path d="M131.167 132.5V137.833" stroke="#717182" stroke-width="2.66667" stroke-linecap="round" stroke-linejoin="round"/>
<path d="M140.5 136.5H140.513" stroke="#717182" stroke-width="2.66667" stroke-linecap="round" stroke-linejoin="round"/>
<path d="M144.5 133.833H144.513" stroke="#717182" stroke-width="2.66667" stroke-linecap="round" stroke-linejoin="round"/>
<path d="M143.593 127.167H129.407C128.087 127.167 126.814 127.656 125.835 128.541C124.855 129.425 124.238 130.641 124.103 131.953C124.095 132.023 124.089 132.088 124.08 132.156C123.972 133.055 123.167 139.775 123.167 141.833C123.167 142.894 123.588 143.912 124.338 144.662C125.088 145.412 126.106 145.833 127.167 145.833C128.5 145.833 129.167 145.167 129.833 144.5L131.719 142.615C132.219 142.114 132.897 141.833 133.604 141.833H139.396C140.103 141.833 140.781 142.114 141.281 142.615L143.167 144.5C143.833 145.167 144.5 145.833 145.833 145.833C146.894 145.833 147.912 145.412 148.662 144.662C149.412 143.912 149.833 142.894 149.833 141.833C149.833 139.773 149.028 133.055 148.92 132.156C148.911 132.089 148.905 132.023 148.897 131.955C148.762 130.642 148.145 129.425 147.166 128.541C146.186 127.657 144.913 127.167 143.593 127.167Z" stroke="#717182" stroke-width="2.66667" stroke-linecap="round" stroke-linejoin="round"/>
</svg>
