<svg width="16" height="16" viewBox="0 0 16 16" fill="none" xmlns="http://www.w3.org/2000/svg">
<g clip-path="url(#clip0_367_1113)">
<path d="M5.33331 9.33325C7.54245 9.33325 9.33331 7.54239 9.33331 5.33325C9.33331 3.12411 7.54245 1.33325 5.33331 1.33325C3.12417 1.33325 1.33331 3.12411 1.33331 5.33325C1.33331 7.54239 3.12417 9.33325 5.33331 9.33325Z" stroke="#F0B100" stroke-width="1.33333" stroke-linecap="round" stroke-linejoin="round"/>
<path d="M12.06 6.91333C12.6902 7.14828 13.251 7.53835 13.6905 8.04746C14.13 8.55657 14.434 9.16829 14.5745 9.82604C14.7149 10.4838 14.6872 11.1663 14.494 11.8106C14.3008 12.4548 13.9482 13.0399 13.4689 13.5117C12.9896 13.9836 12.3991 14.327 11.752 14.5101C11.1048 14.6933 10.4219 14.7103 9.76643 14.5596C9.11095 14.4089 8.50405 14.0954 8.00186 13.648C7.49967 13.2006 7.1184 12.6338 6.89331 12" stroke="#F0B100" stroke-width="1.33333" stroke-linecap="round" stroke-linejoin="round"/>
<path d="M4.66669 4H5.33335V6.66667" stroke="#F0B100" stroke-width="1.33333" stroke-linecap="round" stroke-linejoin="round"/>
<path d="M11.14 9.25342L11.6066 9.72675L9.72662 11.6068" stroke="#F0B100" stroke-width="1.33333" stroke-linecap="round" stroke-linejoin="round"/>
</g>
<defs>
<clipPath id="clip0_367_1113">
<rect width="16" height="16" fill="white"/>
</clipPath>
</defs>
</svg>
